<svg width="35" height="31" viewBox="0 0 35 31" fill="none" xmlns="http://www.w3.org/2000/svg">
<g id="motor">
<path id="Shape" fill-rule="evenodd" clip-rule="evenodd" d="M33.3733 12.8C32.9632 12.8 32.6317 13.1576 32.6317 13.6V16H29.6652V13.6C29.6652 13.1576 29.3336 12.8 28.9235 12.8H25.2154V10.4C25.2154 9.9576 24.8839 9.6 24.4738 9.6H20.7656V1.6H24.4738C24.8839 1.6 25.2154 1.2424 25.2154 0.8C25.2154 0.3576 24.8839 0 24.4738 0H9.64117C9.23105 0 8.89955 0.3576 8.89955 0.8C8.89955 1.2424 9.23105 1.6 9.64117 1.6H13.3493V9.6H9.64117C9.23105 9.6 8.89955 9.9576 8.89955 10.4V12.8H5.1914C4.78128 12.8 4.44977 13.1576 4.44977 13.6V16H1.48326V13.6C1.48326 13.1576 1.15175 12.8 0.741629 12.8C0.331508 12.8 0 13.1576 0 13.6V26.4C0 26.8424 0.331508 27.2 0.741629 27.2C1.15175 27.2 1.48326 26.8424 1.48326 26.4V24H4.44977V26.4C4.44977 26.8424 4.78128 27.2 5.1914 27.2H8.89955V29.6C8.89955 30.0424 9.23105 30.4 9.64117 30.4H24.4738C24.8839 30.4 25.2154 30.0424 25.2154 29.6V27.2H28.9235C29.3336 27.2 29.6652 26.8424 29.6652 26.4V24H32.6317V26.4C32.6317 26.8424 32.9632 27.2 33.3733 27.2C33.7834 27.2 34.1149 26.8424 34.1149 26.4V13.6C34.1149 13.1576 33.7834 12.8 33.3733 12.8ZM4.44977 22.4H1.48326V17.6H4.44977V22.4ZM19.2823 1.6H14.8326V9.6H19.2823V1.6ZM28.1819 25.6H24.4738C24.0636 25.6 23.7321 25.9576 23.7321 26.4V28.8H10.3828V26.4C10.3828 25.9576 10.0513 25.6 9.64117 25.6H5.93303V14.4H9.64117C10.0513 14.4 10.3828 14.0424 10.3828 13.6V11.2H23.7321V13.6C23.7321 14.0424 24.0636 14.4 24.4738 14.4H28.1819V25.6ZM29.6652 22.4H32.6317V17.6H29.6652V22.4Z" fill="#9D9D9D"/>
<path id="Path" fill-rule="evenodd" clip-rule="evenodd" d="M20.7189 19.7232C20.6121 19.4088 20.3347 19.2 20.024 19.2H16.0956L19.7644 15.8072C20.0759 15.52 20.1122 15.0152 19.8445 14.68C19.579 14.3432 19.111 14.3056 18.7995 14.5936L13.6081 19.3936C13.3723 19.6104 13.287 19.964 13.3953 20.2776C13.5028 20.5912 13.7802 20.8 14.0909 20.8H18.0193L14.3505 24.1928C14.039 24.48 14.0027 24.9848 14.2704 25.32C14.4158 25.5056 14.6242 25.6 14.8326 25.6C15.0031 25.6 15.1752 25.5368 15.3146 25.4072L20.506 20.6072C20.7419 20.3904 20.8272 20.0368 20.7189 19.7232Z" fill="#DA2128"/>
</g>
</svg>
